<?xml version="1.0" encoding="UTF-8" standalone="no"?>
<svg width="auto" height="auto" viewBox="0 0 141 52" version="1.1" xmlns="http://www.w3.org/2000/svg" xmlns:xlink="http://www.w3.org/1999/xlink">
    <defs></defs>
    <g id="Symbols" stroke="none" stroke-width="1" fill="none" fill-rule="evenodd">
        <g id="logo" transform="translate(-8.000000, -4.000000)" fill="#FFFFFF">
            <g id="Group-2">
                <g transform="translate(8.000000, 4.000000)">
                    <path d="M42.3408072,40.3868865 L42.597445,41.0617488 L42.5035158,41.0617488 L45.1407172,52 L28.244893,41.6237987 L11.3490688,52 L15.9963259,32.7246938 L0.906875204,19.8622326 L20.6748622,18.3256395 L28.244893,0 L35.8149239,18.3256395 L55.5829109,19.8622326 L40.4934602,32.7246938 L42.3408072,40.3868865 Z M26.8580191,41.0617488 L29.3262472,41.0617488 L29.3262472,28.3628938 L26.6970477,28.3628938 L22.9052769,35.5887211 L19.1492776,28.3628938 L16.5021923,28.3628938 L16.5021923,41.0617488 L18.9704204,41.0617488 L18.9704204,32.6554645 L22.2435056,38.9154634 L23.5849339,38.9154634 L26.8580191,32.6554645 L26.8580191,41.0617488 Z M42.3408072,40.3868865 L37.7683029,28.3628938 L35.5862462,28.3628938 L30.7392184,41.0617488 L33.2789894,41.0617488 L34.4415607,37.8959779 L38.877217,37.8959779 L40.057674,41.0617488 L42.5035158,41.0617488 L42.3408072,40.3868865 Z M38.4300743,36.1610639 L34.852932,36.1610639 L36.6772746,31.1709504 L38.4300743,36.1610639 Z M47.9925304,41.0617488 L47.9925304,28.3628938 L53.6086438,28.3628938 C54.1929133,28.3628938 54.7324601,28.4851116 55.2273006,28.7295509 C55.7221411,28.9739901 56.148413,29.2959297 56.506129,29.6953793 C56.863845,30.0948288 57.1440517,30.547929 57.3467574,31.0546933 C57.5494632,31.5614577 57.6508145,32.0711953 57.6508145,32.5839216 C57.6508145,33.4066685 57.4451309,34.1548799 57.0337575,34.8285784 C56.622384,35.5022769 56.0649516,35.9881672 55.3614435,36.2862639 L58.2589287,41.0617488 L55.4866434,41.0617488 L52.8932153,36.8049495 L50.4607586,36.8049495 L50.4607586,41.0617488 L47.9925304,41.0617488 Z M50.4607586,34.6407784 L53.5549866,34.6407784 C53.7815401,34.6407784 53.9931856,34.5871218 54.1899294,34.479807 C54.3866732,34.3724922 54.5565857,34.226427 54.6996722,34.0416071 C54.8427586,33.8567872 54.9560336,33.6391798 55.0395007,33.3887786 C55.1229677,33.1383774 55.1647006,32.8700944 55.1647006,32.5839216 C55.1647006,32.285825 55.1170059,32.0115801 55.021615,31.7611789 C54.926224,31.5107777 54.7980444,31.2931704 54.6370722,31.1083505 C54.4761,30.9235305 54.2912828,30.7804463 54.0826151,30.6790934 C53.8739474,30.5777405 53.662302,30.5270648 53.4476724,30.5270648 L50.4607586,30.5270648 L50.4607586,34.6407784 Z M59.8865284,41.0617488 L59.8865284,28.3628938 L62.3547566,28.3628938 L62.3547566,41.0617488 L59.8865284,41.0617488 Z M68.6147555,28.3628938 L70.7968122,28.3628938 L75.6259543,41.0617488 L73.0861833,41.0617488 L71.9057263,37.8959779 L67.47007,37.8959779 L66.3074987,41.0617488 L63.7677277,41.0617488 L68.6147555,28.3628938 Z M71.4585836,36.1610639 L69.7057839,31.1709504 L67.8814413,36.1610639 L71.4585836,36.1610639 Z M87.3768666,41.0617488 L87.3768666,32.6554645 L84.1037814,38.9154634 L82.7623531,38.9154634 L79.4892679,32.6554645 L79.4892679,41.0617488 L77.0210398,41.0617488 L77.0210398,28.3628938 L79.668125,28.3628938 L83.4241244,35.5887211 L87.2158952,28.3628938 L89.8450947,28.3628938 L89.8450947,41.0617488 L87.3768666,41.0617488 Z M96.7847507,41.0617488 L96.7847507,28.3628938 L105.316235,28.3628938 L105.316235,30.5270648 L99.2529788,30.5270648 L99.2529788,33.80015 L104.296749,33.80015 L104.296749,35.8033497 L99.2529788,35.8033497 L99.2529788,41.0617488 L96.7847507,41.0617488 Z M109.268977,28.3628938 L111.451034,28.3628938 L116.280176,41.0617488 L113.740405,41.0617488 L112.559948,37.8959779 L108.124292,37.8959779 L106.96172,41.0617488 L104.421949,41.0617488 L109.268977,28.3628938 Z M112.112805,36.1610639 L110.360005,31.1709504 L108.535663,36.1610639 L112.112805,36.1610639 Z M125.044174,31.6896361 C124.960707,31.606169 124.80868,31.492894 124.588089,31.3498076 C124.367497,31.2067212 124.099214,31.0666178 123.783232,30.9294933 C123.467249,30.7923689 123.124443,30.6761129 122.754803,30.580722 C122.385163,30.485331 122.009567,30.4376363 121.628004,30.4376363 C120.948343,30.4376363 120.441586,30.562835 120.107718,30.8132362 C119.77385,31.0636374 119.606918,31.4153862 119.606918,31.8684932 C119.606918,32.1308183 119.669518,32.3484256 119.794718,32.5213216 C119.919919,32.6942177 120.101755,32.8462447 120.340232,32.9774073 C120.57871,33.1085698 120.879783,33.2278067 121.243461,33.3351215 C121.607139,33.4424363 122.027449,33.5557113 122.504403,33.67495 C123.124444,33.8418842 123.687839,34.0207395 124.194603,34.2115214 C124.701367,34.4023032 125.13062,34.640777 125.482374,34.9269498 C125.834128,35.2131226 126.105392,35.5559287 126.296174,35.9553782 C126.486956,36.3548277 126.582346,36.8466799 126.582346,37.4309494 C126.582346,38.1106098 126.454166,38.6918896 126.197803,39.1748062 C125.94144,39.6577228 125.595653,40.0482236 125.160432,40.3463203 C124.72521,40.644417 124.224415,40.8620243 123.658032,40.9991488 C123.091648,41.1362732 122.498445,41.2048344 121.878403,41.2048344 C120.924494,41.2048344 119.982523,41.0617502 119.052461,40.7755774 C118.122399,40.4894046 117.287741,40.0839992 116.548462,39.559349 L117.63949,37.4309494 C117.746805,37.5382642 117.940565,37.6783675 118.220776,37.8512636 C118.500986,38.0241597 118.831869,38.1970531 119.213433,38.3699492 C119.594996,38.5428453 120.018287,38.6889105 120.483318,38.8081491 C120.948349,38.9273878 121.425296,38.9870063 121.914175,38.9870063 C123.273496,38.9870063 123.953146,38.5517916 123.953146,37.6813493 C123.953146,37.4071004 123.875642,37.1745885 123.720632,36.9838066 C123.565621,36.7930247 123.345033,36.6260931 123.05886,36.4830067 C122.772688,36.3399203 122.426901,36.2087597 122.021489,36.089521 C121.616078,35.9702824 121.162978,35.8391218 120.662175,35.6960354 C120.054058,35.5291012 119.526435,35.347265 119.07929,35.1505212 C118.632145,34.9537774 118.259529,34.7212655 117.961433,34.4529785 C117.663336,34.1846914 117.439767,33.8746756 117.290719,33.5229215 C117.14167,33.1711674 117.067147,32.7508574 117.067147,32.2619788 C117.067147,31.61809 117.186384,31.045753 117.424861,30.5449506 C117.663339,30.0441481 117.994221,29.626819 118.417518,29.2929508 C118.840816,28.9590825 119.332668,28.7057041 119.89309,28.532808 C120.453511,28.359912 121.055658,28.2734652 121.699546,28.2734652 C122.593836,28.2734652 123.416571,28.4135686 124.167775,28.6937794 C124.918978,28.9739903 125.574781,29.3048727 126.135203,29.6864364 L125.044174,31.6896361 Z M133.86183,41.1511773 C132.931768,41.1511773 132.088167,40.9693411 131.331002,40.6056631 C130.573836,40.2419852 129.923995,39.7590758 129.381459,39.1569205 C128.838923,38.5547652 128.418613,37.8661722 128.120517,37.0911209 C127.82242,36.3160695 127.673374,35.5231442 127.673374,34.7123213 C127.673374,33.8657267 127.831363,33.0549159 128.147345,32.2798645 C128.463328,31.5048132 128.898542,30.8192011 129.453002,30.2230078 C130.007462,29.6268144 130.666246,29.1528478 131.429373,28.8010937 C132.192501,28.4493396 133.021197,28.2734652 133.915487,28.2734652 C134.833625,28.2734652 135.671264,28.4612633 136.42843,28.8368651 C137.185595,29.2124669 137.832455,29.7043191 138.369029,30.3124363 C138.905603,30.9205535 139.322932,31.6121274 139.621029,32.3871788 C139.919126,33.1622302 140.068172,33.9491936 140.068172,34.7480927 C140.068172,35.5946873 139.913164,36.4025171 139.603143,37.1716066 C139.293123,37.940696 138.86387,38.6203462 138.315372,39.2105776 C137.766874,39.8008091 137.111071,40.2717947 136.347944,40.6235488 C135.584816,40.9753029 134.75612,41.1511773 133.86183,41.1511773 Z M130.177374,34.7123213 C130.177374,35.2608192 130.260839,35.7914233 130.427773,36.3041496 C130.594708,36.8168759 130.836162,37.269976 131.152145,37.6634636 C131.468127,38.0569512 131.855647,38.372929 132.314716,38.6114063 C132.773785,38.8498837 133.295446,38.9691205 133.879716,38.9691205 C134.475909,38.9691205 135.003532,38.8469027 135.462601,38.6024635 C135.92167,38.3580242 136.30919,38.0331037 136.625172,37.6276922 C136.941155,37.2222807 137.179629,36.7661996 137.340601,36.2594353 C137.501573,35.7526709 137.582058,35.2369714 137.582058,34.7123213 C137.582058,34.1638234 137.495611,33.6332193 137.322715,33.120493 C137.149819,32.6077667 136.905383,32.1546665 136.589401,31.7611789 C136.273418,31.3676913 135.885899,31.0546945 135.42683,30.8221791 C134.967761,30.5896637 134.452061,30.4734077 133.879716,30.4734077 C133.283522,30.4734077 132.752918,30.5956255 132.287887,30.8400648 C131.822857,31.0845041 131.435337,31.4064436 131.125316,31.8058932 C130.815296,32.2053427 130.579803,32.6584429 130.418831,33.1652072 C130.257858,33.6719716 130.177374,34.1876711 130.177374,34.7123213 Z" id="Combined-Shape"></path>
                    <text id="asbl-relations-Nord-" font-family="Raleway-Bold, Raleway" font-size="8" font-weight="bold">
                        <tspan x="48.696" y="49">asbl relations Nord-Sud</tspan>
                    </text>
                </g>
            </g>
        </g>
    </g>
</svg>
